<svg width="564" height="173" viewBox="0 0 564 173" fill="none" xmlns="http://www.w3.org/2000/svg">
<path opacity="0.6" d="M274.533 1.95108C352.239 -0.789247 423.435 6.29756 475.721 19.9572C501.867 26.788 523.251 35.2544 538.352 44.9337C553.466 54.6222 562.172 65.4492 563.22 76.9827C564.268 88.5163 557.578 99.8863 544.315 110.575C531.065 121.255 511.351 131.17 486.609 139.796C437.131 157.044 367.673 169.091 289.968 171.831C212.262 174.572 141.065 167.485 88.7798 153.825C62.6335 146.995 41.2493 138.528 26.1492 128.849C11.0347 119.16 2.32833 108.333 1.28046 96.7998C0.232647 85.2663 6.9223 73.8962 20.1853 63.2071C33.4359 52.528 53.1499 42.6122 77.892 33.9869C127.369 16.7385 196.828 4.69141 274.533 1.95108Z" stroke="#486FAA" stroke-width="1.14878"/>
</svg>
