<svg width="771" height="334" viewBox="0 0 771 334" fill="none" xmlns="http://www.w3.org/2000/svg">
<path d="M404.166 6.88772C510.295 18.9818 604.297 47.8936 670.481 84.835C703.575 103.306 729.682 123.769 746.878 145.11C764.073 166.448 772.326 188.62 769.826 210.556C767.326 232.491 754.296 252.239 732.742 269.161C711.185 286.086 681.143 300.149 644.742 310.701C571.944 331.805 473.847 338.827 367.718 326.733C261.589 314.639 167.587 285.726 101.403 248.784C68.3101 230.313 42.2027 209.852 25.0061 188.511C7.81176 167.172 -0.441016 145 2.05869 123.064C4.55848 101.128 17.5883 81.3817 39.1426 64.459C60.6998 47.5341 90.7414 33.4704 127.142 22.9182C199.941 1.81479 298.038 -5.2063 404.166 6.88772Z" stroke="#486FAA" stroke-width="1.39357"/>
</svg>
