<svg width="24" height="24" viewBox="0 0 24 24" fill="none" xmlns="http://www.w3.org/2000/svg">
<path d="M21.0555 12H19.0555C18.7903 12 18.5359 12.1054 18.3484 12.2929C18.1608 12.4804 18.0555 12.7348 18.0555 13C18.0555 13.2652 18.1608 13.5196 18.3484 13.7071C18.5359 13.8946 18.7903 14 19.0555 14V16H17.8695C17.9876 15.6796 18.0502 15.3414 18.0545 15C18.0544 14.3396 17.8365 13.6977 17.4345 13.1738C17.0325 12.6499 16.4688 12.2733 15.8309 12.1024C15.1931 11.9314 14.5166 11.9758 13.9065 12.2285C13.2964 12.4812 12.7867 12.9281 12.4565 13.5C12.3898 13.6138 12.3462 13.7396 12.3284 13.8703C12.3105 14.0009 12.3187 14.1339 12.3524 14.2614C12.3861 14.3889 12.4447 14.5084 12.5248 14.6132C12.6049 14.7179 12.7049 14.8058 12.8191 14.8718C12.9334 14.9377 13.0595 14.9804 13.1903 14.9974C13.321 15.0144 13.4539 15.0054 13.5812 14.9708C13.7084 14.9363 13.8276 14.8769 13.9318 14.7961C14.0361 14.7153 14.1233 14.6147 14.1885 14.5C14.2762 14.348 14.4025 14.2218 14.5545 14.134C14.7065 14.0462 14.8789 14 15.0545 14C15.3197 14 15.574 14.1054 15.7616 14.2929C15.9491 14.4804 16.0545 14.7348 16.0545 15C16.0545 15.2652 15.9491 15.5196 15.7616 15.7071C15.574 15.8946 15.3197 16 15.0545 16C14.7893 16 14.5349 16.1054 14.3474 16.2929C14.1598 16.4804 14.0545 16.7348 14.0545 17C14.0545 17.2652 14.1598 17.5196 14.3474 17.7071C14.5349 17.8946 14.7893 18 15.0545 18C15.3197 18 15.574 18.1054 15.7616 18.2929C15.9491 18.4804 16.0545 18.7348 16.0545 19C16.0545 19.2652 15.9491 19.5196 15.7616 19.7071C15.574 19.8946 15.3197 20 15.0545 20C14.8789 20 14.7065 19.9538 14.5545 19.866C14.4025 19.7783 14.2762 19.652 14.1885 19.5C14.1233 19.3854 14.0361 19.2847 13.9318 19.2039C13.8276 19.1231 13.7084 19.0637 13.5812 19.0292C13.4539 18.9946 13.321 18.9856 13.1903 19.0026C13.0595 19.0196 12.9334 19.0623 12.8191 19.1282C12.7049 19.1942 12.6049 19.2821 12.5248 19.3868C12.4447 19.4916 12.3861 19.6112 12.3524 19.7387C12.3187 19.8662 12.3105 19.9991 12.3284 20.1297C12.3462 20.2604 12.3898 20.3862 12.4565 20.5C12.7867 21.0719 13.2964 21.5188 13.9065 21.7715C14.5166 22.0242 15.1931 22.0686 15.8309 21.8976C16.4688 21.7267 17.0325 21.3501 17.4345 20.8262C17.8365 20.3023 18.0544 19.6604 18.0545 19C18.0502 18.6586 17.9876 18.3204 17.8695 18H19.0545V21C19.0545 21.2652 19.1598 21.5196 19.3474 21.7071C19.5349 21.8946 19.7893 22 20.0545 22C20.3197 22 20.574 21.8946 20.7616 21.7071C20.9491 21.5196 21.0545 21.2652 21.0545 21V14C21.3197 14 21.574 13.8946 21.7616 13.7071C21.9491 13.5196 22.0545 13.2652 22.0545 13C22.0545 12.7348 21.9491 12.4804 21.7616 12.2929C21.574 12.1054 21.3207 12 21.0555 12ZM9.08447 11.243C9.11561 11.3712 9.17181 11.492 9.24983 11.5983C9.32785 11.7047 9.42615 11.7946 9.53907 11.8628C9.65198 11.9311 9.77728 11.9763 9.90774 11.9958C10.0382 12.0154 10.1712 12.009 10.2992 11.977C10.4272 11.9449 10.5475 11.8878 10.6534 11.8091C10.7592 11.7303 10.8484 11.6313 10.9158 11.5179C10.9832 11.4045 11.0275 11.2789 11.0462 11.1483C11.0648 11.0177 11.0574 10.8847 11.0245 10.757L9.26747 3.727C9.14456 3.23319 8.85999 2.79468 8.45905 2.4813C8.05811 2.16792 7.56385 1.99768 7.05497 1.99768C6.54609 1.99768 6.05183 2.16792 5.65089 2.4813C5.24995 2.79468 4.96538 3.23319 4.84247 3.727L3.08447 10.757C3.0515 10.8847 3.04413 11.0177 3.06278 11.1483C3.08144 11.2789 3.12575 11.4045 3.19316 11.5179C3.26058 11.6313 3.34976 11.7303 3.45558 11.8091C3.5614 11.8878 3.68176 11.9449 3.80973 11.977C3.9377 12.009 4.07074 12.0154 4.2012 11.9958C4.33167 11.9763 4.45696 11.9311 4.56987 11.8628C4.68279 11.7946 4.78108 11.7047 4.85911 11.5983C4.93713 11.492 4.99333 11.3712 5.02447 11.243L5.58447 9H8.52447L9.08447 11.243ZM6.08547 7L6.78247 4.213C6.80349 4.15762 6.84086 4.10993 6.88962 4.07628C6.93838 4.04264 6.99623 4.02461 7.05547 4.02461C7.11471 4.02461 7.17256 4.04264 7.22132 4.07628C7.27008 4.10993 7.30745 4.15762 7.32847 4.213L8.02547 7H6.08547ZM14.0555 7H15.0555C15.3207 7 15.575 7.10536 15.7626 7.2929C15.9501 7.48043 16.0555 7.73479 16.0555 8V9C16.0555 9.26522 16.1608 9.51958 16.3484 9.70711C16.5359 9.89465 16.7903 10 17.0555 10C17.3207 10 17.575 9.89465 17.7626 9.70711C17.9501 9.51958 18.0555 9.26522 18.0555 9V8C18.0547 7.2046 17.7383 6.442 17.1759 5.87956C16.6135 5.31712 15.8509 5.0008 15.0555 5H14.0555C13.7903 5 13.5359 5.10536 13.3484 5.2929C13.1608 5.48043 13.0555 5.73479 13.0555 6C13.0555 6.26522 13.1608 6.51958 13.3484 6.70711C13.5359 6.89465 13.7903 7 14.0555 7ZM10.0555 16H9.05547C8.79025 16 8.5359 15.8946 8.34836 15.7071C8.16083 15.5196 8.05547 15.2652 8.05547 15V14C8.05547 13.7348 7.95011 13.4804 7.76258 13.2929C7.57504 13.1054 7.32069 13 7.05547 13C6.79025 13 6.5359 13.1054 6.34836 13.2929C6.16083 13.4804 6.05547 13.7348 6.05547 14V15C6.05626 15.7954 6.37259 16.558 6.93503 17.1204C7.49746 17.6829 8.26006 17.9992 9.05547 18H10.0555C10.3207 18 10.575 17.8946 10.7626 17.7071C10.9501 17.5196 11.0555 17.2652 11.0555 17C11.0555 16.7348 10.9501 16.4804 10.7626 16.2929C10.575 16.1054 10.3207 16 10.0555 16Z" fill="#527FC3"/>
</svg>
