<svg width="1223" height="530" viewBox="0 0 1223 530" fill="none" xmlns="http://www.w3.org/2000/svg">
<path d="M640.645 10.9647C809.103 30.1616 958.312 76.0545 1063.37 134.692C1115.9 164.011 1157.34 196.489 1184.63 230.364C1211.92 264.235 1225.02 299.429 1221.06 334.248C1217.09 369.066 1196.41 400.411 1162.19 427.272C1127.97 454.137 1080.29 476.46 1022.51 493.209C906.957 526.707 751.249 537.852 582.79 518.655C414.332 499.459 265.122 453.566 160.068 394.928C107.539 365.609 66.0984 333.13 38.8023 299.255C11.5098 265.385 -1.58985 230.191 2.37788 195.372C6.34568 160.553 27.0278 129.208 61.2412 102.347C95.459 75.4819 143.144 53.1605 200.923 36.4109C316.476 2.91335 472.186 -8.23221 640.645 10.9647Z" stroke="#486FAA" stroke-width="2.21202"/>
</svg>
