<svg width="918" height="358" viewBox="0 0 918 358" fill="none" xmlns="http://www.w3.org/2000/svg">
<rect width="311.436" height="37.8953" rx="18.9477" transform="matrix(0.977593 0.210502 -0.180937 0.983495 153.112 26.1641)" fill="#4C72AB"/>
<rect width="265.427" height="36.8237" rx="18.4119" transform="matrix(0.999919 -0.0127462 0.0108905 0.999941 138.999 152.766)" fill="#4C72AB"/>
<rect width="240.399" height="36.9093" rx="18.4547" transform="matrix(0.983192 -0.182576 0.204356 0.978897 0 247.602)" fill="#4C72AB"/>
<rect width="359.103" height="37.1328" rx="18.5664" transform="matrix(0.936803 -0.349856 0.387109 0.922034 71.6992 327.859)" fill="#4C72AB"/>
<rect width="196.714" height="37.6236" rx="18.8118" transform="matrix(0.820276 -0.571968 0.616936 0.787013 216.484 373.668)" fill="#4C72AB"/>
<rect width="194.548" height="38.0477" rx="19.0239" transform="matrix(0.696572 -0.717487 0.756841 0.653598 317.695 382.496)" fill="#4C72AB"/>
<rect width="194.353" height="38.0853" rx="19.0427" transform="matrix(0.684148 -0.729343 0.76782 0.640666 377.441 384.113)" fill="#4C72AB"/>
<rect width="95.5505" height="38.9431" rx="19.4716" transform="matrix(0.228563 -0.973529 0.978881 0.204429 495.211 398.531)" fill="#4C72AB"/>
<rect width="95.4211" height="38.9905" rx="19.4953" transform="matrix(0.16678 -0.985994 0.988869 0.148786 542.957 415.199)" fill="#4C72AB"/>
<rect width="95.4933" height="38.9641" rx="19.482" transform="matrix(-0.20363 -0.979048 0.983313 -0.181922 615.961 390.645)" fill="#4C72AB"/>
<rect width="99.0934" height="37.5972" rx="18.7986" transform="matrix(-0.827179 -0.561939 0.606957 -0.794735 923.438 277.645)" fill="#4C72AB"/>
<rect width="99.2111" height="37.5508" rx="18.7754" transform="matrix(-0.839079 -0.544009 0.589015 -0.808122 947.375 242.332)" fill="#4C72AB"/>
<rect width="101.015" height="36.8253" rx="18.4127" transform="matrix(-0.999763 -0.0217915 0.0244966 -0.9997 970.098 137.25)" fill="#4C72AB"/>
<rect width="100.977" height="36.8408" rx="18.4204" transform="matrix(-0.996749 0.0805738 -0.090504 -0.995896 924.016 91.2188)" fill="#4C72AB"/>
<rect width="99.1123" height="37.5897" rx="18.7949" transform="matrix(-0.829104 0.559095 -0.604119 -0.796894 940.824 -11.2773)" fill="#4C72AB"/>
<rect width="136.151" height="38.2826" rx="19.1413" transform="matrix(-0.613751 0.7895 -0.822502 -0.568762 847.336 -25.3477)" fill="#4C72AB"/>
<rect width="149.396" height="38.7988" rx="19.3994" transform="matrix(-0.35452 0.935049 -0.947562 -0.319572 750.152 -43.7773)" fill="#4C72AB"/>
<rect width="148.387" height="39.0366" rx="19.5183" transform="matrix(0.0622959 0.998058 -0.998463 0.0554357 631.68 -79.0312)" fill="#4C72AB"/>
<rect width="150.167" height="38.6149" rx="19.3074" transform="matrix(0.465988 0.884791 -0.905554 0.424231 443.867 -95.9727)" fill="#4C72AB"/>
<rect width="170.301" height="38.9117" rx="19.4559" transform="matrix(0.261408 0.965229 -0.972188 0.234203 526.879 -96)" fill="#4C72AB"/>
<rect width="206.725" height="37.1804" rx="18.5902" transform="matrix(0.92645 0.376419 -0.415478 0.909604 264.949 -47.7773)" fill="#4C72AB"/>
</svg>
